<svg width="72" height="64" viewBox="0 0 72 64" fill="none" xmlns="http://www.w3.org/2000/svg">
<path d="M71.5709 32.3292L66.3181 4.17743C66.1897 3.49122 65.9223 2.83851 65.5324 2.25946C65.1424 1.68041 64.6382 1.18724 64.0506 0.81029C63.463 0.433341 62.8045 0.180577 62.1156 0.0675411C61.4267 -0.0454945 60.7219 -0.0164118 60.0447 0.153001L59.9455 0.181792L43.144 5.13715H28.5243L11.7228 0.197788L11.6236 0.168996C10.9464 -0.000416672 10.2416 -0.0294994 9.55271 0.0835362C8.86381 0.196572 8.20531 0.449336 7.61772 0.826286C7.03012 1.20323 6.52584 1.6964 6.1359 2.27545C5.74595 2.85451 5.47858 3.50721 5.35023 4.19342L0.0973575 32.3292C-0.127271 33.456 0.0394679 34.6258 0.569994 35.6449C1.10052 36.6641 1.96305 37.4717 3.01491 37.934C3.68854 38.2429 4.4204 38.4044 5.16148 38.4075C6.04849 38.407 6.91911 38.1684 7.68235 37.7165V51.2037C7.68235 54.5975 9.03052 57.8523 11.4303 60.2521C13.8301 62.6518 17.0848 64 20.4786 64H51.1897C54.5835 64 57.8382 62.6518 60.238 60.2521C62.6378 57.8523 63.9859 54.5975 63.9859 51.2037V37.7197C64.7484 38.1708 65.6177 38.4094 66.5036 38.4107C67.2455 38.4085 67.9784 38.2482 68.6534 37.9404C69.7065 37.4778 70.5699 36.6693 71.1006 35.6487C71.6312 34.6282 71.7971 33.457 71.5709 32.3292ZM5.12309 33.2889L10.3792 5.13715L23.8376 9.0944L5.12309 33.2889ZM51.1897 58.8815H38.3934V54.8219L42.7633 50.4552C43.2435 49.9749 43.5133 49.3236 43.5133 48.6445C43.5133 47.9653 43.2435 47.314 42.7633 46.8338C42.2831 46.3536 41.6318 46.0838 40.9527 46.0838C40.2735 46.0838 39.6222 46.3536 39.142 46.8338L35.8341 50.1448L32.5263 46.8338C32.0461 46.3536 31.3948 46.0838 30.7156 46.0838C30.0365 46.0838 29.3852 46.3536 28.905 46.8338C28.4247 47.314 28.155 47.9653 28.155 48.6445C28.155 49.3236 28.4247 49.9749 28.905 50.4552L33.2749 54.8219V58.8815H20.4786C18.4424 58.8815 16.4895 58.0726 15.0496 56.6327C13.6098 55.1929 12.8009 53.24 12.8009 51.2037V31.7246L29.4104 10.2557H42.2547L58.8674 31.7246V51.2037C58.8674 53.24 58.0585 55.1929 56.6187 56.6327C55.1788 58.0726 53.2259 58.8815 51.1897 58.8815ZM66.5452 33.2889L47.8307 9.0944L61.2891 5.13715L66.5452 33.2889ZM28.1564 37.1278C28.1564 37.8871 27.9312 38.6293 27.5094 39.2606C27.0876 39.8919 26.488 40.3839 25.7866 40.6745C25.0851 40.965 24.3132 41.0411 23.5686 40.8929C22.8239 40.7448 22.1399 40.3792 21.603 39.8423C21.0661 39.3054 20.7005 38.6214 20.5524 37.8768C20.4043 37.1321 20.4803 36.3602 20.7708 35.6588C21.0614 34.9573 21.5534 34.3577 22.1847 33.9359C22.816 33.5141 23.5582 33.2889 24.3175 33.2889C25.3356 33.2889 26.3121 33.6934 27.032 34.4133C27.7519 35.1333 28.1564 36.1097 28.1564 37.1278ZM51.1897 37.1278C51.1897 37.8871 50.9645 38.6293 50.5427 39.2606C50.1209 39.8919 49.5213 40.3839 48.8199 40.6745C48.1184 40.965 47.3465 41.0411 46.6019 40.8929C45.8572 40.7448 45.1732 40.3792 44.6363 39.8423C44.0994 39.3054 43.7338 38.6214 43.5857 37.8768C43.4375 37.1321 43.5136 36.3602 43.8041 35.6588C44.0947 34.9573 44.5867 34.3577 45.218 33.9359C45.8493 33.5141 46.5915 33.2889 47.3508 33.2889C48.3689 33.2889 49.3454 33.6934 50.0653 34.4133C50.7852 35.1333 51.1897 36.1097 51.1897 37.1278Z" fill="#F4F4F4"/>
</svg>
