<svg width="53" height="60" viewBox="0 0 53 60" fill="none" xmlns="http://www.w3.org/2000/svg">
<path d="M11.25 0C5.03906 0 0 5.03906 0 11.25V48.75C0 54.9609 5.03906 60 11.25 60H45H48.75C50.8242 60 52.5 58.3242 52.5 56.25C52.5 54.1758 50.8242 52.5 48.75 52.5V45C50.8242 45 52.5 43.3242 52.5 41.25V3.75C52.5 1.67578 50.8242 0 48.75 0H45H11.25ZM11.25 45H41.25V52.5H11.25C9.17578 52.5 7.5 50.8242 7.5 48.75C7.5 46.6758 9.17578 45 11.25 45ZM15 16.875C15 15.8438 15.8438 15 16.875 15H39.375C40.4062 15 41.25 15.8438 41.25 16.875C41.25 17.9062 40.4062 18.75 39.375 18.75H16.875C15.8438 18.75 15 17.9062 15 16.875ZM16.875 22.5H39.375C40.4062 22.5 41.25 23.3438 41.25 24.375C41.25 25.4062 40.4062 26.25 39.375 26.25H16.875C15.8438 26.25 15 25.4062 15 24.375C15 23.3438 15.8438 22.5 16.875 22.5Z" fill="#F4F4F4"/>
</svg>
