<svg width="86" height="60" viewBox="0 0 86 60" fill="none" xmlns="http://www.w3.org/2000/svg">
<path d="M51.4286 8.57143V38.5714H8.57143V8.57143H51.4286ZM8.57143 0C3.84375 0 0 3.84375 0 8.57143V38.5714C0 43.2991 3.84375 47.1429 8.57143 47.1429H24.2812L22.8482 51.4286H12.8571C10.4866 51.4286 8.57143 53.3438 8.57143 55.7143C8.57143 58.0848 10.4866 60 12.8571 60H47.1429C49.5134 60 51.4286 58.0848 51.4286 55.7143C51.4286 53.3438 49.5134 51.4286 47.1429 51.4286H37.1384L35.7054 47.1429H51.4286C56.1562 47.1429 60 43.2991 60 38.5714V8.57143C60 3.84375 56.1562 0 51.4286 0H8.57143ZM70.7143 0C67.1652 0 64.2857 2.87946 64.2857 6.42857V53.5714C64.2857 57.1205 67.1652 60 70.7143 60H79.2857C82.8348 60 85.7143 57.1205 85.7143 53.5714V6.42857C85.7143 2.87946 82.8348 0 79.2857 0H70.7143ZM72.8571 8.57143H77.1429C78.3214 8.57143 79.2857 9.53571 79.2857 10.7143C79.2857 11.8929 78.3214 12.8571 77.1429 12.8571H72.8571C71.6786 12.8571 70.7143 11.8929 70.7143 10.7143C70.7143 9.53571 71.6786 8.57143 72.8571 8.57143ZM70.7143 19.2857C70.7143 18.1071 71.6786 17.1429 72.8571 17.1429H77.1429C78.3214 17.1429 79.2857 18.1071 79.2857 19.2857C79.2857 20.4643 78.3214 21.4286 77.1429 21.4286H72.8571C71.6786 21.4286 70.7143 20.4643 70.7143 19.2857ZM75 40.7143C76.1366 40.7143 77.2267 41.1658 78.0305 41.9695C78.8342 42.7733 79.2857 43.8634 79.2857 45C79.2857 46.1366 78.8342 47.2267 78.0305 48.0305C77.2267 48.8342 76.1366 49.2857 75 49.2857C73.8634 49.2857 72.7733 48.8342 71.9695 48.0305C71.1658 47.2267 70.7143 46.1366 70.7143 45C70.7143 43.8634 71.1658 42.7733 71.9695 41.9695C72.7733 41.1658 73.8634 40.7143 75 40.7143Z" fill="#F4F4F4"/>
</svg>
