<svg width="67" height="64" viewBox="0 0 67 64" fill="none" xmlns="http://www.w3.org/2000/svg">
<path d="M37.3333 16.0001V30.4901L49.3733 37.7134C49.9797 38.0776 50.4167 38.6678 50.5879 39.3542C50.7592 40.0406 50.6508 40.7669 50.2866 41.3734C49.9224 41.9798 49.3321 42.4168 48.6458 42.5881C47.9594 42.7593 47.2331 42.6509 46.6266 42.2867L33.2933 34.2867C32.8987 34.0496 32.5721 33.7144 32.3455 33.3137C32.1189 32.913 31.9998 32.4604 32 32.0001V16.0001C32 15.2928 32.2809 14.6146 32.781 14.1145C33.2811 13.6144 33.9594 13.3334 34.6666 13.3334C35.3739 13.3334 36.0521 13.6144 36.5522 14.1145C37.0523 14.6146 37.3333 15.2928 37.3333 16.0001ZM34.6666 9.8704e-05C30.4599 -0.0103798 26.293 0.813544 22.4068 2.42419C18.5207 4.03483 14.9926 6.4002 12.0267 9.38342C9.60332 11.8367 7.44999 14.1967 5.33333 16.6667V10.6668C5.33333 9.95951 5.05237 9.28123 4.55228 8.78114C4.05218 8.28104 3.37391 8.00009 2.66666 8.00009C1.95942 8.00009 1.28114 8.28104 0.781047 8.78114C0.280951 9.28123 0 9.95951 0 10.6668V24.0001C0 24.7073 0.280951 25.3856 0.781047 25.8857C1.28114 26.3858 1.95942 26.6667 2.66666 26.6667H16C16.7072 26.6667 17.3855 26.3858 17.8856 25.8857C18.3857 25.3856 18.6666 24.7073 18.6666 24.0001C18.6666 23.2928 18.3857 22.6145 17.8856 22.1145C17.3855 21.6144 16.7072 21.3334 16 21.3334H8.33332C10.7167 18.5267 13.09 15.8834 15.7966 13.1434C19.5028 9.43726 24.219 6.90545 29.3559 5.86435C34.4927 4.82325 39.8225 5.31902 44.6792 7.28971C49.5359 9.2604 53.7042 12.6186 56.6632 16.9448C59.6222 21.2709 61.2408 26.3731 61.3166 31.6139C61.3924 36.8546 59.9221 42.0015 57.0895 46.4115C54.2569 50.8214 50.1875 54.2988 45.3898 56.4091C40.5921 58.5195 35.2789 59.1692 30.1141 58.2772C24.9492 57.3851 20.1618 54.9908 16.35 51.3934C16.0952 51.1526 15.7955 50.9644 15.468 50.8394C15.1405 50.7145 14.7916 50.6553 14.4412 50.6652C14.0908 50.6751 13.7458 50.7539 13.4259 50.8972C13.106 51.0404 12.8174 51.2453 12.5766 51.5C12.3359 51.7548 12.1477 52.0545 12.0227 52.382C11.8978 52.7095 11.8386 53.0584 11.8485 53.4088C11.8584 53.7592 11.9372 54.1042 12.0805 54.4241C12.2237 54.744 12.4286 55.0326 12.6833 55.2734C16.4815 58.8576 21.0991 61.4578 26.1333 62.847C31.1675 64.2362 36.4651 64.3723 41.564 63.2432C46.6628 62.1142 51.4078 59.7544 55.3849 56.3698C59.362 52.9852 62.4503 48.6787 64.3803 43.8261C66.3103 38.9735 67.0233 33.7222 66.4571 28.5307C65.8909 23.3391 64.0627 18.365 61.1321 14.0425C58.2015 9.72001 54.2575 6.18043 49.6443 3.7327C45.0311 1.28498 39.889 0.00349779 34.6666 9.8704e-05Z" fill="#F4F4F4"/>
</svg>
