<svg width="90" height="60" viewBox="0 0 90 60" fill="none" xmlns="http://www.w3.org/2000/svg">
<path d="M0 10C0 4.48438 4.48438 0 10 0H50C55.5156 0 60 4.48438 60 10V50C60 55.5156 55.5156 60 50 60H10C4.48438 60 0 55.5156 0 50V10ZM87.3594 5.59375C88.9844 6.46875 90 8.15625 90 10V50C90 51.8438 88.9844 53.5313 87.3594 54.4062C85.7344 55.2812 83.7656 55.1875 82.2188 54.1562L67.2188 44.1562L65 42.6719V40V20V17.3281L67.2188 15.8437L82.2188 5.84375C83.75 4.82812 85.7188 4.71875 87.3594 5.59375Z" fill="#F4F4F4"/>
</svg>
