<svg width="60" height="60" viewBox="0 0 60 60" fill="none" xmlns="http://www.w3.org/2000/svg">
<path d="M58.4821 0.744531C59.4312 1.44758 59.9937 2.57246 59.9937 3.75593V12.1925V43.1268C59.9937 48.3059 54.9551 52.5008 48.7449 52.5008C42.5346 52.5008 37.496 48.3059 37.496 43.1268C37.496 37.9476 42.5346 33.7528 48.7449 33.7528C50.0572 33.7528 51.3227 33.9403 52.4945 34.2918V17.2311L22.4976 26.2301V50.626C22.4976 55.8051 17.4591 60 11.2488 60C5.03853 60 0 55.8051 0 50.626C0 45.4468 5.03853 41.252 11.2488 41.252C12.5612 41.252 13.8267 41.4395 14.9984 41.791V23.4414V15.0047C14.9984 13.3526 16.0881 11.8879 17.67 11.4075L55.1661 0.158656C56.3027 -0.181152 57.533 0.029763 58.4821 0.744531Z" fill="#F4F4F4"/>
</svg>
