<svg width="64" height="64" viewBox="0 0 64 64" fill="none" xmlns="http://www.w3.org/2000/svg">
<path d="M24 13.1C24 11.95 23.275 10.9375 22.35 10.25C20.9 9.1625 20 7.6625 20 6C20 2.6875 23.5875 0 28 0C32.4125 0 36 2.6875 36 6C36 7.6625 35.1 9.1625 33.65 10.25C32.725 10.9375 32 11.95 32 13.1C32 14.7 33.3 16 34.9 16H42C45.3125 16 48 18.6875 48 22V29.1C48 30.7 49.3 32 50.9 32C52.05 32 53.0625 31.275 53.75 30.35C54.8375 28.9 56.3375 28 58 28C61.3125 28 64 31.5875 64 36C64 40.4125 61.3125 44 58 44C56.3375 44 54.8375 43.1 53.75 41.65C53.0625 40.725 52.05 40 50.9 40C49.3 40 48 41.3 48 42.9V58C48 61.3125 45.3125 64 42 64H34.9C33.3 64 32 62.7 32 61.1C32 59.95 32.725 58.9375 33.65 58.25C35.1 57.1625 36 55.6625 36 54C36 50.6875 32.4125 48 28 48C23.5875 48 20 50.6875 20 54C20 55.6625 20.9 57.1625 22.35 58.25C23.275 58.9375 24 59.95 24 61.1C24 62.7 22.7 64 21.1 64H6C2.6875 64 0 61.3125 0 58V42.9C0 41.3 1.3 40 2.9 40C4.05 40 5.0625 40.725 5.75 41.65C6.8375 43.1 8.3375 44 10 44C13.3125 44 16 40.4125 16 36C16 31.5875 13.3125 28 10 28C8.3375 28 6.8375 28.9 5.75 30.35C5.0625 31.275 4.05 32 2.9 32C1.3 32 0 30.7 0 29.1V22C0 18.6875 2.6875 16 6 16H21.1C22.7 16 24 14.7 24 13.1Z" fill="#F4F4F4"/>
</svg>
