<svg width="64" height="64" viewBox="0 0 64 64" fill="none" xmlns="http://www.w3.org/2000/svg">
<path d="M22.0918 62.2196C19.7179 64.5935 15.8588 64.5935 13.4722 62.2196L1.78042 50.5151C-0.593474 48.1412 -0.593474 44.2821 1.78042 41.8955L8.2166 35.4593L14.31 41.5527C15.0971 42.3398 16.3919 42.3398 17.179 41.5527C17.9661 40.7656 17.9661 39.4708 17.179 38.6837L11.0856 32.5903L16.3412 27.3347L22.4346 33.4281C23.2217 34.2152 24.5165 34.2152 25.3036 33.4281C26.0906 32.6411 26.0906 31.3462 25.3036 30.5592L19.2102 24.4657L24.4657 19.2102L30.5592 25.3036C31.3462 26.0906 32.6411 26.0906 33.4281 25.3036C34.2152 24.5165 34.2152 23.2217 33.4281 22.4346L27.3347 16.3412L32.5903 11.0856L38.6837 17.179C39.4708 17.9661 40.7656 17.9661 41.5527 17.179C42.3398 16.3919 42.3398 15.0971 41.5527 14.31L35.4593 8.2166L41.8955 1.78042C44.2694 -0.593474 48.1285 -0.593474 50.5151 1.78042L62.2069 13.4722C64.5808 15.8461 64.5808 19.7052 62.2069 22.0918L22.0918 62.2196Z" fill="#F4F4F4"/>
</svg>
