<svg width="64" height="64" viewBox="0 0 64 64" fill="none" xmlns="http://www.w3.org/2000/svg">
<path d="M0 32C0 23.5131 3.37142 15.3737 9.37258 9.37258C15.3737 3.37142 23.5131 0 32 0C40.4869 0 48.6263 3.37142 54.6274 9.37258C60.6286 15.3737 64 23.5131 64 32C64 40.4869 60.6286 48.6263 54.6274 54.6274C48.6263 60.6286 40.4869 64 32 64C23.5131 64 15.3737 60.6286 9.37258 54.6274C3.37142 48.6263 0 40.4869 0 32ZM36 12C36 10.9391 35.5786 9.92172 34.8284 9.17157C34.0783 8.42143 33.0609 8 32 8C30.9391 8 29.9217 8.42143 29.1716 9.17157C28.4214 9.92172 28 10.9391 28 12C28 13.0609 28.4214 14.0783 29.1716 14.8284C29.9217 15.5786 30.9391 16 32 16C33.0609 16 34.0783 15.5786 34.8284 14.8284C35.5786 14.0783 36 13.0609 36 12ZM32 52C36.4125 52 40 48.4125 40 44C40 41.825 39.1375 39.8625 37.7375 38.425L45.75 20.2125C46.4125 18.7 45.725 16.925 44.2125 16.2625C42.7 15.6 40.925 16.2875 40.2625 17.8L32.2375 36C32.1625 36 32.075 36 32 36C27.5875 36 24 39.5875 24 44C24 48.4125 27.5875 52 32 52ZM22 18C22 16.9391 21.5786 15.9217 20.8284 15.1716C20.0783 14.4214 19.0609 14 18 14C16.9391 14 15.9217 14.4214 15.1716 15.1716C14.4214 15.9217 14 16.9391 14 18C14 19.0609 14.4214 20.0783 15.1716 20.8284C15.9217 21.5786 16.9391 22 18 22C19.0609 22 20.0783 21.5786 20.8284 20.8284C21.5786 20.0783 22 19.0609 22 18ZM12 36C13.0609 36 14.0783 35.5786 14.8284 34.8284C15.5786 34.0783 16 33.0609 16 32C16 30.9391 15.5786 29.9217 14.8284 29.1716C14.0783 28.4214 13.0609 28 12 28C10.9391 28 9.92172 28.4214 9.17157 29.1716C8.42143 29.9217 8 30.9391 8 32C8 33.0609 8.42143 34.0783 9.17157 34.8284C9.92172 35.5786 10.9391 36 12 36ZM56 32C56 30.9391 55.5786 29.9217 54.8284 29.1716C54.0783 28.4214 53.0609 28 52 28C50.9391 28 49.9217 28.4214 49.1716 29.1716C48.4214 29.9217 48 30.9391 48 32C48 33.0609 48.4214 34.0783 49.1716 34.8284C49.9217 35.5786 50.9391 36 52 36C53.0609 36 54.0783 35.5786 54.8284 34.8284C55.5786 34.0783 56 33.0609 56 32Z" fill="#F4F4F4"/>
</svg>
