<svg width="64" height="64" viewBox="0 0 64 64" fill="none" xmlns="http://www.w3.org/2000/svg">
<path d="M32 62C48.5685 62 62 48.5685 62 32C62 15.4315 48.5685 2 32 2C15.4315 2 2 15.4315 2 32C2 48.5685 15.4315 62 32 62Z" stroke="#F4F4F4" stroke-width="4" stroke-miterlimit="10" stroke-linecap="round"/>
<path d="M32 19.3672L20.1109 29.3406M32 19.3672L43.8891 29.3406M32 19.3672V10.3719M20.1109 29.3406L23.25 42M20.1109 29.3406L11.85 25.8406M23.25 42H40.75M23.25 42L18.875 49.5M40.75 42L43.8891 29.3406M40.75 42L45.125 49.5L40.75 60.5937M43.8891 29.3406L52.15 25.8406M52.15 25.8406L56.1781 14.3937M52.15 25.8406L61.8438 34.1828M11.85 25.8406L7.82188 14.3937M11.85 25.8406L2.15625 34.1828M32 10.3719L42 3.70937M32 10.3719L22 3.70781M56.1781 49.5H45.4375M18.875 49.5L23.3078 60.6719M18.875 49.5H7.87969" stroke="#F4F4F4" stroke-width="4" stroke-linecap="round" stroke-linejoin="round"/>
</svg>
