<svg width="100" height="60" viewBox="0 0 100 60" fill="none" xmlns="http://www.w3.org/2000/svg">
<path d="M30 0C13.4375 0 0 13.4375 0 30C0 46.5625 13.4375 60 30 60H70C86.5625 60 100 46.5625 100 30C100 13.4375 86.5625 0 70 0H30ZM77.5 16.25C79.1576 16.25 80.7473 16.9085 81.9194 18.0806C83.0915 19.2527 83.75 20.8424 83.75 22.5C83.75 24.1576 83.0915 25.7473 81.9194 26.9194C80.7473 28.0915 79.1576 28.75 77.5 28.75C75.8424 28.75 74.2527 28.0915 73.0806 26.9194C71.9085 25.7473 71.25 24.1576 71.25 22.5C71.25 20.8424 71.9085 19.2527 73.0806 18.0806C74.2527 16.9085 75.8424 16.25 77.5 16.25ZM61.25 37.5C61.25 35.8424 61.9085 34.2527 63.0806 33.0806C64.2527 31.9085 65.8424 31.25 67.5 31.25C69.1576 31.25 70.7473 31.9085 71.9194 33.0806C73.0915 34.2527 73.75 35.8424 73.75 37.5C73.75 39.1576 73.0915 40.7473 71.9194 41.9194C70.7473 43.0915 69.1576 43.75 67.5 43.75C65.8424 43.75 64.2527 43.0915 63.0806 41.9194C61.9085 40.7473 61.25 39.1576 61.25 37.5ZM26.25 21.25C26.25 19.1719 27.9219 17.5 30 17.5C32.0781 17.5 33.75 19.1719 33.75 21.25V26.25H38.75C40.8281 26.25 42.5 27.9219 42.5 30C42.5 32.0781 40.8281 33.75 38.75 33.75H33.75V38.75C33.75 40.8281 32.0781 42.5 30 42.5C27.9219 42.5 26.25 40.8281 26.25 38.75V33.75H21.25C19.1719 33.75 17.5 32.0781 17.5 30C17.5 27.9219 19.1719 26.25 21.25 26.25H26.25V21.25Z" fill="#F4F4F4"/>
</svg>
